<svg width="50" height="44" viewBox="0 0 50 44" fill="none" xmlns="http://www.w3.org/2000/svg">
<rect width="50" height="43.734" rx="8" fill="#2405F2"/>
<mask id="mask0_7_75" style="mask-type:alpha" maskUnits="userSpaceOnUse" x="0" y="0" width="50" height="44">
<rect width="50" height="43.734" rx="8" fill="#5C5E84"/>
</mask>
<g mask="url(#mask0_7_75)">
<rect x="-26" y="23.6165" width="50" height="43.734" rx="8" fill="#FCD980"/>
<rect x="8" y="-7.87207" width="50" height="43.734" rx="8" fill="#5239FA"/>
</g>
<path d="M16.08 23.1398C16.08 21.0638 16.428 19.4438 17.124 18.2798C17.832 17.1038 19.044 16.5158 20.76 16.5158C22.476 16.5158 23.682 17.1038 24.378 18.2798C25.086 19.4438 25.44 21.0638 25.44 23.1398C25.44 25.2398 25.086 26.8838 24.378 28.0718C23.682 29.2478 22.476 29.8358 20.76 29.8358C19.044 29.8358 17.832 29.2478 17.124 28.0718C16.428 26.8838 16.08 25.2398 16.08 23.1398ZM23.424 23.1398C23.424 22.1678 23.358 21.3458 23.226 20.6738C23.106 20.0018 22.854 19.4558 22.47 19.0358C22.086 18.6038 21.516 18.3878 20.76 18.3878C20.004 18.3878 19.434 18.6038 19.05 19.0358C18.666 19.4558 18.408 20.0018 18.276 20.6738C18.156 21.3458 18.096 22.1678 18.096 23.1398C18.096 24.1478 18.156 24.9938 18.276 25.6778C18.396 26.3618 18.648 26.9138 19.032 27.3338C19.428 27.7538 20.004 27.9638 20.76 27.9638C21.516 27.9638 22.086 27.7538 22.47 27.3338C22.866 26.9138 23.124 26.3618 23.244 25.6778C23.364 24.9938 23.424 24.1478 23.424 23.1398ZM27.3413 18.6218V16.7498H31.0853V29.8718H29.0153V18.6218H27.3413Z" fill="white"/>
</svg>
