<svg width="50" height="44" viewBox="0 0 50 44" fill="none" xmlns="http://www.w3.org/2000/svg">
<rect width="50" height="43.734" rx="8" fill="#2405F2"/>
<mask id="mask0_7_108" style="mask-type:alpha" maskUnits="userSpaceOnUse" x="0" y="0" width="50" height="44">
<rect width="50" height="43.734" rx="8" fill="#5C5E84"/>
</mask>
<g mask="url(#mask0_7_108)">
<rect x="-26" y="23.6165" width="50" height="43.734" rx="8" fill="#FCD980"/>
<rect x="8" y="-7.87207" width="50" height="43.734" rx="8" fill="#5239FA"/>
</g>
<path d="M16.08 23.1401C16.08 21.0641 16.428 19.4441 17.124 18.2801C17.832 17.1041 19.044 16.5161 20.76 16.5161C22.476 16.5161 23.682 17.1041 24.378 18.2801C25.086 19.4441 25.44 21.0641 25.44 23.1401C25.44 25.2401 25.086 26.8841 24.378 28.0721C23.682 29.2481 22.476 29.8361 20.76 29.8361C19.044 29.8361 17.832 29.2481 17.124 28.0721C16.428 26.8841 16.08 25.2401 16.08 23.1401ZM23.424 23.1401C23.424 22.1681 23.358 21.3461 23.226 20.6741C23.106 20.0021 22.854 19.4561 22.47 19.0361C22.086 18.6041 21.516 18.3881 20.76 18.3881C20.004 18.3881 19.434 18.6041 19.05 19.0361C18.666 19.4561 18.408 20.0021 18.276 20.6741C18.156 21.3461 18.096 22.1681 18.096 23.1401C18.096 24.1481 18.156 24.9941 18.276 25.6781C18.396 26.3621 18.648 26.9141 19.032 27.3341C19.428 27.7541 20.004 27.9641 20.76 27.9641C21.516 27.9641 22.086 27.7541 22.47 27.3341C22.866 26.9141 23.124 26.3621 23.244 25.6781C23.364 24.9941 23.424 24.1481 23.424 23.1401ZM27.3593 27.1361V25.5881L33.4073 16.9121H35.8913V25.3541H37.5653V27.1361H35.8913V29.8721H33.8753V27.1361H27.3593ZM33.9653 19.0001L29.7173 25.3541H33.9653V19.0001Z" fill="white"/>
</svg>
