<svg width="50" height="44" viewBox="0 0 50 44" fill="none" xmlns="http://www.w3.org/2000/svg">
<rect width="50" height="43.734" rx="8" fill="#2405F2"/>
<mask id="mask0_7_86" style="mask-type:alpha" maskUnits="userSpaceOnUse" x="0" y="0" width="50" height="44">
<rect width="50" height="43.734" rx="8" fill="#5C5E84"/>
</mask>
<g mask="url(#mask0_7_86)">
<rect x="-26" y="23.6167" width="50" height="43.734" rx="8" fill="#FCD980"/>
<rect x="8" y="-7.87207" width="50" height="43.734" rx="8" fill="#5239FA"/>
</g>
<path d="M16.08 23.1401C16.08 21.0641 16.428 19.4441 17.124 18.2801C17.832 17.1041 19.044 16.5161 20.76 16.5161C22.476 16.5161 23.682 17.1041 24.378 18.2801C25.086 19.4441 25.44 21.0641 25.44 23.1401C25.44 25.2401 25.086 26.8841 24.378 28.0721C23.682 29.2481 22.476 29.8361 20.76 29.8361C19.044 29.8361 17.832 29.2481 17.124 28.0721C16.428 26.8841 16.08 25.2401 16.08 23.1401ZM23.424 23.1401C23.424 22.1681 23.358 21.3461 23.226 20.6741C23.106 20.0021 22.854 19.4561 22.47 19.0361C22.086 18.6041 21.516 18.3881 20.76 18.3881C20.004 18.3881 19.434 18.6041 19.05 19.0361C18.666 19.4561 18.408 20.0021 18.276 20.6741C18.156 21.3461 18.096 22.1681 18.096 23.1401C18.096 24.1481 18.156 24.9941 18.276 25.6781C18.396 26.3621 18.648 26.9141 19.032 27.3341C19.428 27.7541 20.004 27.9641 20.76 27.9641C21.516 27.9641 22.086 27.7541 22.47 27.3341C22.866 26.9141 23.124 26.3621 23.244 25.6781C23.364 24.9941 23.424 24.1481 23.424 23.1401ZM27.5753 19.9901C27.6473 18.8741 28.0733 18.0041 28.8533 17.3801C29.6453 16.7561 30.6533 16.4441 31.8773 16.4441C32.7173 16.4441 33.4433 16.5941 34.0553 16.8941C34.6673 17.1941 35.1293 17.6021 35.4413 18.1181C35.7533 18.6341 35.9093 19.2161 35.9093 19.8641C35.9093 20.6081 35.7113 21.2441 35.3153 21.7721C34.9193 22.3001 34.4453 22.6541 33.8933 22.8341V22.9061C34.6013 23.1221 35.1533 23.5181 35.5493 24.0941C35.9453 24.6581 36.1433 25.3841 36.1433 26.2721C36.1433 26.9801 35.9813 27.6101 35.6573 28.1621C35.3333 28.7141 34.8533 29.1521 34.2173 29.4761C33.5813 29.7881 32.8193 29.9441 31.9313 29.9441C30.6353 29.9441 29.5673 29.6141 28.7273 28.9541C27.8993 28.2821 27.4553 27.3221 27.3953 26.0741H29.3753C29.4233 26.7101 29.6693 27.2321 30.1133 27.6401C30.5573 28.0361 31.1573 28.2341 31.9133 28.2341C32.6453 28.2341 33.2093 28.0361 33.6053 27.6401C34.0013 27.2321 34.1993 26.7101 34.1993 26.0741C34.1993 25.2341 33.9293 24.6401 33.3893 24.2921C32.8613 23.9321 32.0453 23.7521 30.9413 23.7521H30.4733V22.0601H30.9593C31.9313 22.0481 32.6693 21.8861 33.1733 21.5741C33.6893 21.2621 33.9473 20.7701 33.9473 20.0981C33.9473 19.5221 33.7613 19.0661 33.3893 18.7301C33.0173 18.3821 32.4893 18.2081 31.8053 18.2081C31.1333 18.2081 30.6113 18.3821 30.2393 18.7301C29.8673 19.0661 29.6453 19.4861 29.5733 19.9901H27.5753Z" fill="white"/>
</svg>
