<svg width="50" height="44" viewBox="0 0 50 44" fill="none" xmlns="http://www.w3.org/2000/svg">
<rect width="50" height="43.734" rx="8" fill="#2405F2"/>
<mask id="mask0_7_97" style="mask-type:alpha" maskUnits="userSpaceOnUse" x="0" y="0" width="50" height="44">
<rect width="50" height="43.734" rx="8" fill="#5C5E84"/>
</mask>
<g mask="url(#mask0_7_97)">
<rect x="-26" y="23.6165" width="50" height="43.734" rx="8" fill="#FCD980"/>
<rect x="8" y="-7.87183" width="50" height="43.734" rx="8" fill="#5239FA"/>
</g>
<path d="M16.08 23.1403C16.08 21.0643 16.428 19.4443 17.124 18.2803C17.832 17.1043 19.044 16.5163 20.76 16.5163C22.476 16.5163 23.682 17.1043 24.378 18.2803C25.086 19.4443 25.44 21.0643 25.44 23.1403C25.44 25.2403 25.086 26.8843 24.378 28.0723C23.682 29.2483 22.476 29.8363 20.76 29.8363C19.044 29.8363 17.832 29.2483 17.124 28.0723C16.428 26.8843 16.08 25.2403 16.08 23.1403ZM23.424 23.1403C23.424 22.1683 23.358 21.3463 23.226 20.6743C23.106 20.0023 22.854 19.4563 22.47 19.0363C22.086 18.6043 21.516 18.3883 20.76 18.3883C20.004 18.3883 19.434 18.6043 19.05 19.0363C18.666 19.4563 18.408 20.0023 18.276 20.6743C18.156 21.3463 18.096 22.1683 18.096 23.1403C18.096 24.1483 18.156 24.9943 18.276 25.6783C18.396 26.3623 18.648 26.9143 19.032 27.3343C19.428 27.7543 20.004 27.9643 20.76 27.9643C21.516 27.9643 22.086 27.7543 22.47 27.3343C22.866 26.9143 23.124 26.3623 23.244 25.6783C23.364 24.9943 23.424 24.1483 23.424 23.1403ZM28.7453 27.0823C29.8973 26.0863 30.8033 25.2703 31.4633 24.6343C32.1353 23.9863 32.6933 23.3143 33.1373 22.6183C33.5813 21.9223 33.8033 21.2263 33.8033 20.5303C33.8033 19.8103 33.6293 19.2463 33.2813 18.8383C32.9453 18.4303 32.4113 18.2263 31.6793 18.2263C30.9713 18.2263 30.4193 18.4543 30.0233 18.9103C29.6393 19.3543 29.4353 19.9543 29.4113 20.7103H27.4313C27.4673 19.3423 27.8753 18.2983 28.6553 17.5783C29.4473 16.8463 30.4493 16.4803 31.6613 16.4803C32.9693 16.4803 33.9893 16.8403 34.7213 17.5603C35.4653 18.2803 35.8373 19.2403 35.8373 20.4403C35.8373 21.3043 35.6153 22.1383 35.1713 22.9423C34.7393 23.7343 34.2173 24.4483 33.6053 25.0843C33.0053 25.7083 32.2373 26.4343 31.3013 27.2623L30.4913 27.9823H36.1973V29.6923H27.4493V28.1983L28.7453 27.0823Z" fill="white"/>
</svg>
