<svg width="122" height="22" viewBox="0 0 122 22" fill="none" xmlns="http://www.w3.org/2000/svg">
<g clip-path="url(#clip0_9_300)">
<path d="M121.784 16.5064V19.1472H119.251C116.549 19.0729 115.105 17.7964 115.105 15.3988V9.36758H113.336V7.051H115.105V4.45752H118.842V7.02399H121.699V9.33381H118.842V15.0746C118.842 15.8513 119.019 16.4726 120.386 16.4726L121.784 16.5064Z" fill="white"/>
<path d="M98.4416 13.1228V12.9472C98.4011 12.1704 98.5364 11.3943 98.8395 10.6633C99.1427 9.9323 99.6078 9.26083 100.208 8.68736C100.809 8.1139 101.532 7.64971 102.338 7.3214C103.144 6.9931 104.016 6.80714 104.904 6.77417C105.082 6.77417 105.267 6.77417 105.445 6.77417C108.974 6.77417 112.07 8.5707 112.07 12.8526V13.7644H102.264C102.364 15.7365 103.584 16.8509 105.638 16.8509C107.406 16.8509 108.232 16.1755 108.472 15.1895H112.001C111.568 17.7627 109.221 19.1945 105.507 19.1945C101.43 19.1675 98.4416 16.9117 98.4416 13.1228ZM108.395 11.6977C108.263 9.90121 107.229 9.03671 105.43 9.03671C103.63 9.03671 102.596 10.0093 102.341 11.6977H108.395Z" fill="white"/>
<path d="M83.1838 13.1228V12.9472C83.1433 12.1715 83.278 11.3964 83.5802 10.6663C83.8824 9.93615 84.3462 9.26526 84.9449 8.69197C85.5437 8.11868 86.2658 7.65423 87.0699 7.32516C87.874 6.99609 88.7444 6.80886 89.6312 6.77417C89.8088 6.77417 89.9942 6.77417 90.1717 6.77417C93.7005 6.77417 96.8045 8.5707 96.8045 12.8526V13.7644H87.0059C87.1063 15.7365 88.3263 16.8509 90.3802 16.8509C92.1485 16.8509 92.9747 16.1755 93.214 15.1895H96.7428C96.3026 17.7627 93.9553 19.1945 90.2412 19.1945C86.172 19.1675 83.1838 16.9117 83.1838 13.1228ZM93.1368 11.6977C93.0055 9.90121 91.9709 9.03671 90.1717 9.03671C88.3726 9.03671 87.3688 10.0363 87.0831 11.691L93.1368 11.6977Z" fill="white"/>
<path d="M61.772 7.02393H65.7254L68.1422 15.034L70.7907 7.02393H73.8793L76.273 15.034L78.8211 7.02393H82.4425L78.1493 18.9242H74.443L72.1265 11.4545L69.6479 18.9242H65.8953L61.772 7.02393Z" fill="white"/>
<path d="M49.2095 15.1826H52.7382C52.9004 16.2565 53.5104 16.8711 55.1319 16.8711C56.5835 16.8711 57.2553 16.3916 57.2553 15.5744C57.2553 14.7572 56.4831 14.4127 54.5064 14.1696C50.885 13.69 49.4875 12.7783 49.4875 10.4549C49.4875 7.97627 52.0819 6.74707 54.8925 6.74707C57.9116 6.74707 60.1895 7.70612 60.5138 10.4414H57.0314C57.0091 10.23 56.9392 10.0245 56.8257 9.83677C56.7121 9.64907 56.5572 9.48292 56.3698 9.3479C56.1824 9.21288 55.9663 9.11168 55.734 9.05014C55.5016 8.9886 55.2576 8.96794 55.0161 8.98935H54.9002C53.6802 8.98935 52.9699 9.48914 52.9699 10.2186C52.9699 10.948 53.6262 11.2654 55.6183 11.5153C59.0004 11.9611 60.8921 12.7107 60.8921 15.2569C60.8921 17.8031 58.7533 19.1674 55.1705 19.1674C51.5877 19.1674 49.3099 17.7559 49.2095 15.1826Z" fill="white"/>
<path d="M34.2139 7.02395H37.9511V8.90828C38.3723 8.21664 39.0117 7.64532 39.7933 7.2622C40.5748 6.87908 41.4657 6.70028 42.3601 6.74704C45.0085 6.74704 46.9312 8.1586 46.9312 11.3802V18.9513H43.2403V11.853C43.2403 10.2388 42.5222 9.46885 40.8544 9.46885C40.5019 9.442 40.1467 9.47632 39.8094 9.56983C39.4721 9.66334 39.1593 9.81421 38.8888 10.0138C38.6183 10.2133 38.3955 10.4576 38.2333 10.7327C38.0711 11.0077 37.9725 11.3081 37.9434 11.6166C37.9241 11.7602 37.9241 11.9052 37.9434 12.0488V18.9243H34.2139V7.02395Z" fill="white"/>
<path d="M27.0022 4.03203C26.9887 3.70611 27.086 3.384 27.2819 3.10649C27.4777 2.82898 27.7633 2.60854 28.1025 2.47308C28.4417 2.33763 28.8192 2.29325 29.1872 2.34556C29.5553 2.39787 29.8973 2.54452 30.17 2.76695C30.4427 2.98937 30.6338 3.27757 30.7191 3.59505C30.8044 3.91253 30.7801 4.24502 30.6493 4.55042C30.5184 4.85581 30.287 5.12039 29.9841 5.31064C29.6813 5.5009 29.3207 5.60828 28.948 5.61918H28.8785C28.6473 5.63199 28.4154 5.60472 28.1961 5.53896C27.9769 5.47319 27.7747 5.37021 27.6011 5.23593C27.4275 5.10164 27.2859 4.9387 27.1845 4.75644C27.083 4.57419 27.0237 4.37621 27.0099 4.17386C27.0035 4.1268 27.0009 4.0794 27.0022 4.03203ZM27.0022 7.02399H30.778V18.9243H27.0177L27.0022 7.02399Z" fill="white"/>
<path d="M12.7715 2.66113H24.709V5.54503H16.9874V9.84724H23.1029V12.6231H16.9797V18.9244H12.7715V2.66113Z" fill="white"/>
<path d="M5.56722 7.98307C5.56722 9.0029 5.56722 10.2456 3.96114 10.7522C5.60582 11.2452 5.56722 12.292 5.56722 13.3862V17.4385C5.56722 18.2084 5.92241 18.6744 6.55557 18.7892C6.6947 18.8303 6.84127 18.8486 6.98797 18.8433H8.53228V21.5448H5.98418C3.2662 21.5448 1.76823 20.1941 1.76823 17.6884V12.8931C1.74895 12.6469 1.62485 12.416 1.42043 12.246C1.216 12.0759 0.946116 11.9791 0.664051 11.9746H0V9.60399H0.664051C0.951744 9.60067 1.22693 9.5006 1.43252 9.32455C1.63812 9.14849 1.75833 8.90997 1.76823 8.65845V3.79567C1.76823 1.33051 3.23532 0 5.98418 0H8.55544V2.66102H7.01114C6.86426 2.66139 6.71835 2.6819 6.57873 2.72181C5.94557 2.86364 5.59038 3.3229 5.59038 4.07258L5.56722 7.98307Z" fill="white"/>
</g>
<defs>
<clipPath id="clip0_9_300">
<rect width="122" height="21.6124" fill="white"/>
</clipPath>
</defs>
</svg>
